<svg width="520" height="119" viewBox="0 0 520 119" fill="none" xmlns="http://www.w3.org/2000/svg">
<mask id="mask0_453_536" style="mask-type:alpha" maskUnits="userSpaceOnUse" x="0" y="0" width="520" height="119">
<path d="M64.2908 10.2743C67.1089 0.505581 55.6491 -4.00302 50.9525 4.45056L0.417489 104.769C-1.46131 109.842 3.23533 118.483 9.81057 118.483H157.283C163.858 118.483 168.555 109.842 166.676 104.769L116.141 4.45056C111.445 -4.00302 99.9849 0.505581 102.803 10.2743L122.904 91.2432C124.219 96.3155 121.401 104.394 114.263 105.333H52.8312C45.6923 104.394 42.8744 96.3155 44.1895 91.2432L64.2908 10.2743Z" fill="#2264B0"/>
<path d="M189.188 105.38V10.167H209.205V105.38H189.188Z" fill="#5979B2"/>
<path d="M217.577 105.38V36.3442H237.595V105.38H217.577ZM227.586 26.7202C223.908 26.7202 220.914 25.6509 218.604 23.5122C216.294 21.3735 215.139 18.7216 215.139 15.5564C215.139 12.3912 216.294 9.73923 218.604 7.60057C220.914 5.46191 223.908 4.39258 227.586 4.39258C231.265 4.39258 234.259 5.41914 236.569 7.47225C238.878 9.43982 240.033 12.0062 240.033 15.1714C240.033 18.5077 238.878 21.288 236.569 23.5122C234.344 25.6509 231.35 26.7202 227.586 26.7202Z" fill="#5979B2"/>
<path d="M254.618 105.38V34.8043C254.618 27.0196 256.927 20.8175 261.547 16.198C266.166 11.4929 272.753 9.1404 281.308 9.1404C284.217 9.1404 286.997 9.43982 289.649 10.0386C292.386 10.6375 294.696 11.5785 296.578 12.8617L291.317 27.3618C290.205 26.5919 288.964 25.993 287.596 25.5653C286.227 25.1376 284.773 24.9237 283.233 24.9237C280.324 24.9237 278.057 25.7792 276.432 27.4901C274.892 29.1155 274.122 31.5963 274.122 34.9326V41.3486L274.635 49.946V105.38H254.618ZM243.967 53.2823V37.884H291.83V53.2823H243.967Z" fill="#5979B2"/>
<path d="M328.258 106.407C320.132 106.407 313.801 104.354 309.267 100.247C304.733 96.0555 302.466 89.8534 302.466 81.641V21.0741H322.484V81.3843C322.484 84.2929 323.254 86.5599 324.794 88.1853C326.334 89.7251 328.43 90.495 331.081 90.495C334.247 90.495 333.888 90.7882 336.5 89.5C339.615 95.9573 341.95 97.9835 345.417 101.787C343.364 103.241 340.021 104.61 337.112 105.38C334.289 106.064 331.338 106.407 328.258 106.407ZM291.816 53.2823V37.884H349.5C343.37 42.8528 340.451 46.1954 337.5 53.2823H291.816Z" fill="#5979B2"/>
<path d="M378.524 106.407C371.167 106.407 364.623 104.867 358.891 101.787C353.245 98.7075 348.754 94.5157 345.417 89.2118C342.167 83.8224 340.541 77.7058 340.541 70.8621C340.541 63.9329 342.167 57.8163 345.417 52.5124C348.754 47.123 353.245 42.9312 358.891 39.9371C364.623 36.8574 371.167 35.3176 378.524 35.3176C385.795 35.3176 392.297 36.8574 398.028 39.9371C403.76 42.9312 408.251 47.0802 411.502 52.3841C414.753 57.688 416.378 63.8473 416.378 70.8621C416.378 77.7058 414.753 83.8224 411.502 89.2118C408.251 94.5157 403.76 98.7075 398.028 101.787C392.297 104.867 385.795 106.407 378.524 106.407ZM378.524 89.9818C381.86 89.9818 384.854 89.2118 387.506 87.672C390.158 86.1322 392.254 83.9507 393.794 81.1277C395.334 78.2191 396.104 74.7973 396.104 70.8621C396.104 66.8415 395.334 63.4196 393.794 60.5966C392.254 57.7735 390.158 55.5921 387.506 54.0523C384.854 52.5124 381.86 51.7425 378.524 51.7425C375.188 51.7425 372.193 52.5124 369.542 54.0523C366.89 55.5921 364.751 57.7735 363.126 60.5966C361.586 63.4196 360.816 66.8415 360.816 70.8621C360.816 74.7973 361.586 78.2191 363.126 81.1277C364.751 83.9507 366.89 86.1322 369.542 87.672C372.193 89.2118 375.188 89.9818 378.524 89.9818Z" fill="#5979B2"/>
<path d="M429.978 105.38V34.8043C429.978 27.0196 432.288 20.8175 436.907 16.198C441.527 11.4929 448.114 9.1404 456.668 9.1404C459.577 9.1404 462.357 9.43982 465.009 10.0386C467.747 10.6375 470.056 11.5785 471.938 12.8617L466.677 27.3618C465.565 26.5919 464.325 25.993 462.956 25.5653C461.587 25.1376 460.133 24.9237 458.593 24.9237C455.684 24.9237 453.417 25.7792 451.792 27.4901C450.252 29.1155 449.482 31.5963 449.482 34.9326V41.3486L449.996 49.946V105.38H429.978ZM420 53.2823C417.628 47.0439 414.923 43.6759 408.5 39L467.19 37.884V53.2823H420Z" fill="#5979B2"/>
<path d="M477.498 105.38V34.8043C477.498 27.0196 479.807 20.8175 484.427 16.198C489.046 11.4929 495.633 9.1404 504.188 9.1404C507.097 9.1404 509.877 9.43982 512.529 10.0386C515.266 10.6375 517.576 11.5785 519.458 12.8617L514.197 27.3618C513.085 26.5919 511.844 25.993 510.476 25.5653C509.107 25.1376 507.653 24.9237 506.113 24.9237C503.204 24.9237 500.937 25.7792 499.312 27.4901C497.772 29.1155 497.002 31.5963 497.002 34.9326V41.3486L497.515 49.946V105.38H477.498ZM466.847 53.2823V37.884H514.71V53.2823H466.847Z" fill="#5979B2"/>
</mask>
<g mask="url(#mask0_453_536)">
<rect x="-0.558594" y="-9.55273" width="520.083" height="137.565" fill="#D9D9D9"/>
<rect x="-0.558594" y="-9.55273" width="520.083" height="137.565" fill="url(#paint0_linear_453_536)"/>
</g>
<defs>
<linearGradient id="paint0_linear_453_536" x1="390.719" y1="-9.48379" x2="325.425" y2="220.439" gradientUnits="userSpaceOnUse">
<stop stop-color="#0AECAD"/>
<stop offset="1" stop-color="#32509E"/>
</linearGradient>
</defs>
</svg>
